<svg width="92px" height="92px" version="1.1" viewBox="0 0 92 92" xmlns="http://www.w3.org/2000/svg">
<title>logo_header</title>
<desc>Created with Sketch.</desc>
<defs>
<linearGradient id="linearGradient889" x1="34.733" x2="66.324" y1="76.42" y2="76.42" gradientTransform="translate(.26672 -.39956)" gradientUnits="userSpaceOnUse">
<stop stop-color="#1ccaba" offset="0"/>
<stop stop-color="#5073f1" offset="1"/>
</linearGradient>
<linearGradient id="linearGradient889-5" x1="34.733" x2="66.324" y1="76.42" y2="76.42" gradientTransform="matrix(-1,0,0,1,76.621,-2.5886)" gradientUnits="userSpaceOnUse">
<stop stop-color="#1ccaba" offset="0"/>
<stop stop-color="#5073f1" offset="1"/>
</linearGradient>
</defs>
<g transform="matrix(1.2889 0 0 1.2889 -3.4715 -51.54)">
<path d="m10.341 45.053 0.10501 24.815s0.8519 6.2652 3.3515 11.771c2.2738 5.0087 7.1209 10.213 7.1209 10.213l14.72 13.857s2.5993 2.0486 4.643 0.65915c1.8996-1.2914 1.5651-4.6354 1.5651-4.6354v-30.238s0.26748-4.2085-0.57189-6.0533c-0.71869-1.5795-3.5858-3.7741-3.5858-3.7741l-21.277-19.899s-2.2085-1.8457-4.2896-0.41146c-2.2709 1.565-1.7809 3.6966-1.7809 3.6966z" fill="url(#linearGradient889-5)"/>
<path d="m66.546 47.242-0.10501 24.815s-0.8519 6.2652-3.3515 11.771c-2.2738 5.0087-7.1209 10.213-7.1209 10.213l-14.72 13.857s-2.5993 2.0486-4.643 0.65915c-1.8996-1.2914-1.5651-4.6354-1.5651-4.6354v-30.238s-0.26748-4.2085 0.57189-6.0533c0.71869-1.5795 3.5858-3.7741 3.5858-3.7741l21.277-19.899s2.2085-1.8457 4.2896-0.41146c2.2709 1.565 1.7809 3.6966 1.7809 3.6966z" fill="url(#linearGradient889)"/>
</g>
</svg>
