<svg width="92px" height="92px" version="1.1" viewBox="0 0 92 92" xmlns="http://www.w3.org/2000/svg">
<title>logo_header</title>
<desc>Created with Sketch.</desc>
<defs>
<linearGradient id="linearGradient889" x1="34.733" x2="66.324" y1="76.42" y2="76.42" gradientTransform="translate(.26672 -.39956)" gradientUnits="userSpaceOnUse">
<stop stop-color="#1ccaba" offset="0"/>
<stop stop-color="#5073f1" offset="1"/>
</linearGradient>
<linearGradient id="linearGradient889-5" x1="34.733" x2="66.324" y1="76.42" y2="76.42" gradientTransform="matrix(-1,0,0,1,76.621,-2.5886)" gradientUnits="userSpaceOnUse">
<stop stop-color="#1ccaba" offset="0"/>
<stop stop-color="#5073f1" offset="1"/>
</linearGradient>
</defs>
<g transform="matrix(1.2889 0 0 1.2889 -3.4715 -51.54)">
<path d="m10.341 45.053.10501 24.815s.8519 6.2652 3.3515 11.771c2.2738 5.0087 7.1209 10.213 7.1209 10.213l14.72 13.857s2.5993 2.0486 4.643.65915c1.8996-1.2914 1.5651-4.6354 1.5651-4.6354v-30.238s.26748-4.2085-.57189-6.0533c-.71869-1.5795-3.5858-3.7741-3.5858-3.7741l-21.277-19.899s-2.2085-1.8457-4.2896-.41146c-2.2709 1.565-1.7809 3.6966-1.7809 3.6966z" fill="url(#linearGradient889-5)"/>
<path d="m66.546 47.242-.10501 24.815s-.8519 6.2652-3.3515 11.771c-2.2738 5.0087-7.1209 10.213-7.1209 10.213l-14.72 13.857s-2.5993 2.0486-4.643.65915c-1.8996-1.2914-1.5651-4.6354-1.5651-4.6354v-30.238s-.26748-4.2085.57189-6.0533c.71869-1.5795 3.5858-3.7741 3.5858-3.7741l21.277-19.899s2.2085-1.8457 4.2896-.41146c2.2709 1.565 1.7809 3.6966 1.7809 3.6966z" fill="url(#linearGradient889)"/>
</g>
<g transform="matrix(.27214 0 0 .27214 20.483 32.693)">
<g transform="matrix(1.2474 0 0 1.2474 -26.568 -47.269)">
<g transform="matrix(.56773 0 0 .56773 82.995 31.643)">
<path d="m144.47 5.1185c-48.47 0-87.9 39.43-87.9 87.903 0 48.473 39.43 87.907 87.9 87.907 48.47 0 87.908-39.438 87.908-87.907 0-48.469-39.438-87.903-87.908-87.903z" fill="#fdd100" stroke-width="1.1041"/>
<g fill="#fff47e">
<path d="m223.71 84.068c-.204-1.604-1.652-2.756-3.284-2.528-1.604.204-2.736 1.676-2.532 3.28 1.5 11.624.224 23.54-3.688 34.46-.548 1.524.248 3.2 1.768 3.748.328.116.664.172.988.172 1.204 0 2.332-.744 2.756-1.94 4.224-11.792 5.608-24.652 3.992-37.192z"/>
<path d="m217.27 72.316c.316 0 .636-.052.96-.16 1.528-.528 2.34-2.196 1.812-3.724-10.912-31.636-41.912-53.74-75.38-53.756-1.62 0-2.928 1.308-2.932 2.924 0 1.62 1.312 2.932 2.932 2.932 31.012.016 59.732 20.5 69.844 49.808.416 1.212 1.552 1.976 2.764 1.976z"/>
<path d="m144.66 168.22c-40.716 0-73.836-33.128-73.836-73.84 0-24.416 12.052-47.224 32.236-61.016 1.336-.912 1.68-2.736.764-4.072-.908-1.332-2.732-1.68-4.068-.764-21.792 14.884-34.796 39.5-34.796 65.856 0 43.948 35.752 79.7 79.7 79.7 1.62 0 2.932-1.308 2.932-2.928 0-1.624-1.312-2.936-2.932-2.936z"/>
</g>
<path d="m197.92 68.46-33.168-4.82-14.832-30.052c-.988-2-3.028-3.268-5.256-3.268-2.232 0-4.268 1.268-5.256 3.268l-14.832 30.052-33.168 4.82c-2.208.32-4.04 1.868-4.732 3.988-.688 2.124-.116 4.452 1.48 6.008l24 23.392-5.664 33.032c-.376 2.2.528 4.42 2.332 5.732 1.02.74 2.228 1.12 3.444 1.12.932 0 1.868-.22 2.728-.672l29.664-15.592 29.664 15.592c.856.452 1.792.672 2.728.672 1.216 0 2.424-.38 3.444-1.12 1.804-1.312 2.708-3.532 2.332-5.732l-5.664-33.032 24-23.392c1.596-1.556 2.172-3.888 1.48-6.008-.684-2.12-2.516-3.668-4.724-3.988zm-27.048 31.344 6.184 36.068-32.388-17.028-32.392 17.028 6.188-36.068-26.204-25.544 36.212-5.26 16.196-32.816 16.196 32.816 36.212 5.26z" fill="#fcc300"/>
<path d="m144.67 36.184-16.197 32.816-36.211 5.2598 26.203 25.543-6.1875 36.068 32.393-17.027 32.387 17.027-6.1836-36.068 26.205-25.543-36.213-5.2598z" fill="#fff47e" style="mix-blend-mode:normal"/>
<path d="m237.57 92.933c0-51.35-41.776-93.126-93.13-93.126-51.35 0-93.13 41.776-93.13 93.126 0 28.954 13.29 54.866 34.08 71.96-.34436.48051-.59263 1.0411-.59263 1.6778v119.54c0 1.1012.61266 2.1062 1.5897 2.6068.42445.21623.88894.32433 1.3414.32433.60464 0 1.2013-.1842 1.7098-.54858l56.087-40.17 56.091 40.17c.89294.64068 2.0702.72476 3.0512.22425.98104-.50053 1.5937-1.5096 1.5937-2.6068v-121.71c0-.56059-.20022-1.0531-.47251-1.4976 19.464-17.082 31.781-42.108 31.781-69.973zm-37.175 160.13-44.615-30.236c-1.3494-.92097-3.1673-.55658-4.0763.78082-.90895 1.3414-.55659 3.1673.78483 4.0723l47.906 32.462v20.257l-53.156-38.068c-1.0251-.72877-2.3945-.72877-3.4196 0l-53.152 38.068v-111.51c14.743 10.467 32.642 16.75 51.975 17.118-.008.0841-.048.15214-.048.23623v44.499c0 1.6217 1.3174 2.9351 2.9351 2.9351 1.6177 0 2.9351-1.3094 2.9351-2.9351v-44.499c0-.10404-.048-.1922-.06-.2923 3.0672-.1282 6.0944-.40843 9.0775-.82887l42.773 28.986c.044.032.0961.0401.14006.0682v17.578l-44.615-30.236c-1.3494-.91296-3.1673-.55659-4.0763.78082-.90894 1.3414-.55658 3.1673.78483 4.0723l47.862 32.434c.012.008.032.012.044.02zm.005-45.94-34.728-23.537c12.781-2.9911 24.566-8.601 34.728-16.265zm-55.959-26.932c-48.115 0-87.256-39.145-87.256-87.264 0-48.119 39.141-87.26 87.256-87.26 48.115 0 87.264 39.145 87.264 87.26 0 48.115-39.149 87.264-87.264 87.264z" fill="#fbb500" stroke-width="1.001"/>
<path d="m200.72 167.09c-10.219 7.7062-22.385 13.361-35.237 16.368l34.921 23.666zm-110.34 1.5826v112.12l53.444-38.279c1.0307-.73278 2.4077-.73278 3.4384 0l53.448 38.279v-20.369l-48.169-32.64c-1.3488-.9099-1.7023-2.7462-.78834-4.095.91396-1.3447 2.7421-1.7124 4.099-.78636l44.859 30.403v-14.31c-.0121-.008-.0312-.0115-.0435-.0196l-48.126-32.613c-1.3488-.90993-1.7023-2.7463-.78835-4.095.91397-1.3448 2.7421-1.7024 4.099-.78441l44.544 30.28.31487-17.553c-.0444-.0283.0442.0322 0 0l-43.148-29.216c-2.9996.42275-6.0438.7047-9.1278.83356-.23005 21.199.0617 29.739.062 44.466 5e-5 1.6346-1.3243 2.9528-2.9509 2.9528-1.6266 0-2.9198-1.3225-2.9509-2.9528.16725-14.677.0483-44.279.0483-44.279-18.546-.54897-37.438-6.8168-52.263-17.341z" fill="#fdd100" stroke-width="1.102"/>
</g>
</g>
</g>
</svg>
