<svg id="Layer_1" data-name="Layer 1" xmlns="http://www.w3.org/2000/svg" viewBox="0 0 400 400"><defs><style>.cls-1{fill:#1CC8B833;}.cls-2{fill:#00c8ab;}.cls-3{fill:#212237;}.cls-4{fill:#fff;}.cls-5{fill:#e0004d;}.cls-6{fill:#fff4f2;}.cls-7{fill:#002e6f;}.cls-8{fill:#1b2c1f;}.cls-9{fill:#e9e8e6;}.cls-10{fill:#ed785f;}.cls-11{fill:#ffba98;}.cls-12{fill:#041939;}</style></defs><title>Thumb Doctor</title><rect class="cls-1" x="-1.67" y="-1.67" width="403.33" height="403.33"/><path class="cls-2" d="M215.56,249.06c-.58.28-1.18.54-1.79.79a31.29,31.29,0,0,1-11.8,2.3h0c-.5,0-1,0-1.48,0-.17,0-.33,0-.5,0l-1-.07-.58-.06-.89-.12-.6-.09c-.29,0-.56-.09-.84-.15l-.62-.12-.82-.19-1-.25-.89-.25c-.28-.08-.55-.18-.83-.27l-.48-.16-.88-.33-.38-.15-.93-.4-.24-.1a31.4,31.4,0,0,1-18.11-24.1l-1.47,61.36c12.1,25.46,27.82,48,32.38,53.8,4.49-5.8,20.28-28.77,32.31-54.52l-1-62.34a31.38,31.38,0,0,1-17.64,25.49Z"/><path class="cls-2" d="M228.77,301.67c-10.71,20-22.44,36.86-25.81,40.92v4h25.5v32.15H174.72V346.59h26v-4c-3.5-4.23-18.87-25.87-31.4-51.2L166.74,400h69.15l-1.66-109C232.4,294.74,230.55,298.33,228.77,301.67Z"/><path class="cls-3" d="M169.46,286.63l-.12,4.76c12.53,25.33,27.9,47,31.4,51.2V351H203v-8.4c3.37-4.06,15.1-20.94,25.81-40.92,1.78-3.34,3.63-6.93,5.46-10.69l-.08-5.07c-12,25.75-27.82,48.72-32.31,54.52C197.28,334.6,181.56,312.09,169.46,286.63Z"/><path class="cls-4" d="M200.74,351v-4.4h-26v32.15h53.74V346.59H203V351Zm-7.86,21.41h-12.2v-2h12.2Zm0-5.1h-12.2V355.1h12.2Zm31.5,5.1H199.09v-2h25.29Zm0-5.1H199.09v-2h25.29Zm0-5.11H199.09v-2h25.29Zm0-5.1H199.09v-2h25.29Z"/><rect class="cls-5" x="180.68" y="355.1" width="12.2" height="12.2"/><rect class="cls-6" x="199.09" y="355.1" width="25.29" height="1.99"/><rect class="cls-6" x="199.09" y="360.2" width="25.29" height="1.99"/><rect class="cls-6" x="199.09" y="365.31" width="25.29" height="1.99"/><rect class="cls-6" x="199.09" y="370.41" width="25.29" height="1.99"/><rect class="cls-5" x="180.68" y="370.41" width="12.2" height="1.99"/><path class="cls-4" d="M141.75,255a2.87,2.87,0,0,0-.75-.1,3.24,3.24,0,0,0-1.9.67c-4.94,3.5-8.21,18.2-9.11,26.64-2.33,23.3-1.23,38.14,1.07,47.59,4.62-8.56,9.49-22.35,13.42-44.56C146.55,276,148.57,256.57,141.75,255Z"/><path class="cls-1" d="M284.38,400h9.46q-6.16-9.63-13.87-19.52C281.71,386.92,283.18,393.44,284.38,400Z"/><path class="cls-4" d="M169.46,286.63l1.47-61.36a31.6,31.6,0,0,1-.33-4.48V204.54a47.72,47.72,0,0,0-11.79,9.15c-12.59,13.51-13.68,31.14-13.69,36.65,11.21,5.71,5.52,32.74,4.8,36-4.1,23.18-9.65,40.1-16.55,50.55a20,20,0,0,0,5.16,7.54,9.93,9.93,0,0,0,5.88,2.5,4.42,4.42,0,1,1,0,5.53,15.27,15.27,0,0,1-9.25-3.63,23.48,23.48,0,0,1-5.57-7,24.23,24.23,0,0,1-8.11,6.11,15.38,15.38,0,0,1-9.51,1.09,4.37,4.37,0,0,1-2.29.66,4.42,4.42,0,1,1,4.13-6,10.22,10.22,0,0,0,5.59-.94c2.07-.94,4.75-2.86,7.69-6.71-4.15-11.95-5-30.16-2.59-54.46.27-2.5,2.84-24.51,11.42-30.59a9,9,0,0,1,3.68-1.56c.1-7.07,1.79-25.18,15.18-39.55.79-.85,1.61-1.66,2.45-2.45l-14.86,7.07h0C113.48,225.66,49.9,265.16,29.8,400H166.74l2.6-108.61Z"/><path class="cls-4" d="M263.3,216.9l0-.23-18.78-11.51c15.13,16.18,17.61,43.4,19.75,66.89,1,11.24,2,22,4.24,30.53a11.41,11.41,0,0,1,1.32-.08,11.11,11.11,0,1,1-6.51,2.12c-2.48-9.08-3.51-20.34-4.58-32.07-2.44-26.87-5.14-56.43-25.43-69.38v17.62c0,.94-.05,1.86-.13,2.78l1,62.34.08,5.07,1.66,109h48.49c-1.2-6.56-2.67-13.08-4.41-19.52q7.72,9.88,13.87,19.52H370.2C351.32,273.38,294.1,230.83,263.3,216.9Z"/><path class="cls-7" d="M154.75,209.91c-13.39,14.37-15.08,32.48-15.18,39.55a9,9,0,0,0-3.68,1.56c-8.58,6.08-11.15,28.09-11.42,30.59-2.43,24.3-1.56,42.51,2.59,54.46-2.94,3.85-5.62,5.77-7.69,6.71a10.22,10.22,0,0,1-5.59.94,4.35,4.35,0,0,1,.29,1.54,4.42,4.42,0,0,1-2.13,3.76,15.38,15.38,0,0,0,9.51-1.09,24.23,24.23,0,0,0,8.11-6.11,23.48,23.48,0,0,0,5.57,7,15.27,15.27,0,0,0,9.25,3.63,4.31,4.31,0,0,1,0-5.53,9.93,9.93,0,0,1-5.88-2.5,20,20,0,0,1-5.16-7.54c6.9-10.45,12.45-27.37,16.55-50.55.72-3.22,6.41-30.25-4.8-36,0-5.51,1.1-23.14,13.69-36.65a47.72,47.72,0,0,1,11.79-9.15v-6.26a53.94,53.94,0,0,0-13.4,9.18C156.36,208.25,155.54,209.06,154.75,209.91Zm-10.27,75.3c-3.93,22.21-8.8,36-13.42,44.56-2.3-9.45-3.4-24.29-1.07-47.59.9-8.44,4.17-23.14,9.11-26.64a3.24,3.24,0,0,1,1.9-.67,2.87,2.87,0,0,1,.75.1C148.57,256.57,146.55,276,144.48,285.21Z"/><path class="cls-7" d="M233.33,203.17c20.29,13,23,42.51,25.43,69.38,1.07,11.73,2.1,23,4.58,32.07a11.06,11.06,0,0,1,5.19-2c-2.23-8.49-3.22-19.29-4.24-30.53-2.14-23.49-4.62-50.71-19.75-66.89a41.66,41.66,0,0,0-11.21-8.54Z"/><path class="cls-8" d="M114.07,345.26a4.35,4.35,0,0,0-.29-1.54,4.35,4.35,0,1,0,.29,1.54Z"/><path class="cls-8" d="M258.76,313.58a11.09,11.09,0,1,0,11.09-11.08,11.41,11.41,0,0,0-1.32.08,11.11,11.11,0,0,0-9.77,11Zm11.09-5.8a5.8,5.8,0,1,1-5.8,5.8A5.8,5.8,0,0,1,269.85,307.78Z"/><path class="cls-9" d="M264.05,313.58a5.8,5.8,0,1,0,5.8-5.8A5.8,5.8,0,0,0,264.05,313.58Z"/><path class="cls-8" d="M144.38,352.42a4.41,4.41,0,1,0,0-5.53,4.31,4.31,0,0,0,0,5.53Z"/><path class="cls-10" d="M200.47,252.11c-.17,0-.33,0-.5,0C200.14,252.09,200.3,252.11,200.47,252.11Z"/><path class="cls-10" d="M194.64,251.28l-1-.25Z"/><path class="cls-10" d="M191.47,250.35l-.88-.33Z"/><path class="cls-10" d="M192.78,250.78c-.28-.08-.55-.18-.83-.27C192.23,250.6,192.5,250.7,192.78,250.78Z"/><path class="cls-10" d="M190.21,249.87l-.93-.4Z"/><path class="cls-10" d="M202,252.15h0a31.29,31.29,0,0,0,11.8-2.3,31.29,31.29,0,0,1-11.8,2.3Z"/><path class="cls-10" d="M196.08,251.59l-.62-.12Z"/><path class="cls-10" d="M224.14,243a31.41,31.41,0,0,1-8.58,6.09A31.41,31.41,0,0,0,224.14,243Z"/><path class="cls-10" d="M199,252l-.58-.06Z"/><path class="cls-10" d="M197.52,251.83l-.6-.09Z"/><path class="cls-10" d="M170.6,204.54v16.25A31.47,31.47,0,0,0,189,249.37a31.44,31.44,0,0,1-17.39-20.68c23.44-11.95,44.76-27.07,61.68-47.91v40A31.27,31.27,0,0,1,224.14,243a31.31,31.31,0,0,0,9.06-19.4c.08-.92.13-1.84.13-2.78V173.94a57.89,57.89,0,0,1-36.84,13.23c-10,0-18.69-2.58-25.89-7.54v24.91Z"/><path class="cls-11" d="M190.21,249.87l.38.15.88.33.48.16c.28.09.55.19.83.27l.89.25,1,.25.82.19.62.12c.28.06.55.11.84.15l.6.09.89.12.58.06,1,.07c.17,0,.33,0,.5,0,.49,0,1,0,1.48,0h0a31.29,31.29,0,0,0,11.8-2.3c.61-.25,1.21-.51,1.79-.79a31.39,31.39,0,0,0,17.77-28.27v-40c-16.92,20.84-38.24,36-61.68,47.91A31.44,31.44,0,0,0,189,249.37l.24.1Z"/><path class="cls-11" d="M233.33,173.94a58.47,58.47,0,0,0,19.14-30.41c5.78-1.47,17.52-6.37,17.52-22,0-12.27-7.28-14.74-13.2-14.72a6.24,6.24,0,0,1-7.46,1.19c-7.46-3.3-6.45-43.2-47.74-45.75-13.67,31.21-39.77,39.07-52.53,34.41-.71,9.09-.71,18.66-.71,28.11,0,26.37,8.2,45.12,22.25,54.81,7.2,5,15.93,7.54,25.89,7.54A57.89,57.89,0,0,0,233.33,173.94Z"/><path class="cls-12" d="M201.59,62.3c41.29,2.55,40.28,42.45,47.74,45.75a6.24,6.24,0,0,0,7.46-1.19,12.9,12.9,0,0,0,2.87-4.72C270,67.6,255,23.36,200,23.36s-65.11,61-55.7,70.45a13.11,13.11,0,0,0,4.76,2.9C161.82,101.37,187.92,93.51,201.59,62.3Z"/></svg>