<?xml version="1.0" encoding="UTF-8"?>
<svg width="24" height="24" version="1.1" viewBox="0 0 24 24" xmlns="http://www.w3.org/2000/svg" xmlns:cc="http://creativecommons.org/ns#" xmlns:dc="http://purl.org/dc/elements/1.1/" xmlns:rdf="http://www.w3.org/1999/02/22-rdf-syntax-ns#">
 <metadata>
  <rdf:RDF>
   <cc:Work rdf:about="">
    <dc:format>image/svg+xml</dc:format>
    <dc:type rdf:resource="http://purl.org/dc/dcmitype/StillImage"/>
    <dc:title/>
   </cc:Work>
  </rdf:RDF>
 </metadata>
 <path d="m14.84 15.514c3.02 0.57 5.16 2.0261 5.16 3.7361v2h-16v-2c0-1.71 2.14-3.17 5.16-3.74l2.84 2.9722 2.84-2.9605m-6.84-7.7856h8v2c0 2.2091-1.7909 4-4 4s-4-1.7909-4-4v-2m0-1 0.41-3.9453c0.05-0.51 0.48-0.9 1-0.9h5.19c0.51 0 0.94 0.39 0.99 0.9l0.41 3.9453h-8m4-4h-1v1h-1v1h1v1h1v-1h1v-1h-1z" fill="#6c757d"/>
 <path d="m17.5 15.081c0.28 0 0.5 0.215 0.5 0.5 0 0.27614-0.22386 0.5-0.5 0.5-0.285 0-0.5-0.225-0.5-0.5 0-0.285 0.215-0.5 0.5-0.5m-7.5 0.27784-1 0.18076v1.0414c0 1.48 1.095 2.75 2.57 2.955 0.31 1.505 1.64 2.545 3.18 2.545 1.7949 0 3.25-1.4551 3.25-3.25v-1.845c0.58-0.21 1-0.76 1-1.405-1e-6 -0.82843-0.67157-1.5-1.5-1.5-0.82843 1e-6 -1.5 0.67157-1.5 1.5 0 0.645 0.42 1.2 1 1.405v1.8c0 1.25-1 2.25-2.25 2.25-1 0-1.84-0.605-2.14-1.505 1.39-0.3 2.39-1.55 2.39-2.95v-1.0336l-1-0.18857v1.2222c0 1.1046-0.89543 2-2 2s-2-0.89543-2-2z" fill="#c1ccd7" stroke-width=".5"/>
</svg>
