<svg height="511pt" viewBox="-70 0 511 511.99873" width="511pt" xmlns="http://www.w3.org/2000/svg"><path d="m335.285156 428.183594c-3.417968 2.355468-4.28125 7.03125-1.929687 10.449218 2.191406 3.1875 3.257812 6.234376 3.257812 9.320313 0 23.183594-61.753906 49.015625-150.367187 49.015625-88.609375 0-150.363282-25.832031-150.363282-49.015625 0-18.550781 39.53125-38.789063 100.710938-46.144531 7.566406 12.226562 14.125 25.160156 19.59375 38.691406l1.039062 2.570312c4.875 12.074219 15.996094 19.574219 29.015626 19.574219 13.023437 0 24.140624-7.5 29.019531-19.574219l.792969-1.960937c5.492187-13.585937 12.210937-26.691406 20.070312-39.1875 28.359375 3.464844 53.710938 9.816406 72.144531 18.394531 3.765625 1.75 8.234375.121094 9.984375-3.644531 1.75-3.761719.121094-8.230469-3.644531-9.984375-18.371094-8.546875-42.203125-14.933594-69.023437-18.742188 2.132812-2.933593 4.320312-5.835937 6.582031-8.6875 7.375-9.300781 15.519531-18.230468 24.203125-26.535156 6.5625-6.277344 13.46875-12.257812 20.148437-18.042968 16.738281-14.496094 34.050781-29.484376 47.035157-50.113282 18.605468-29.558594 28.441406-63.730468 28.441406-98.816406 0-49.167969-19.023438-95.515625-53.566406-130.5-34.507813-34.949219-80.539063-54.566406-129.613282-55.2304688-50.03125-.7031252-97.246094 18.3906248-132.992187 53.6914068-35.730469 35.289062-55.378907 82.253906-55.324219 132.238281.023438 22.941406 4.265625 45.484375 12.609375 67.011719 13.945313 35.980468 39.984375 59.738281 65.167969 82.714843 13.945312 12.726563 28.367187 25.882813 40.519531 40.96875 2.953125 3.664063 5.800781 7.417969 8.539063 11.246094-20.429688 2.878906-39.214844 7.265625-55.261719 13.011719-33.03125 11.828125-51.222657 28.535156-51.222657 47.050781 0 18.511719 18.191407 35.21875 51.222657 47.046875 30.613281 10.960938 71.160156 17 114.171875 17 43.011718 0 83.5625-6.039062 114.171875-17 33.03125-11.828125 51.222656-28.535156 51.222656-47.046875 0-6.144531-1.988281-12.144531-5.90625-17.839844-2.351563-3.417969-7.03125-4.28125-10.449219-1.929687zm-246.878906-103.609375c-25-22.8125-48.613281-44.355469-61.285156-77.046875-7.667969-19.789063-11.570313-40.511719-11.589844-61.589844-.050781-45.933594 18.011719-89.09375 50.855469-121.53125 32.296875-31.898438 74.777343-49.375 119.859375-49.375.785156 0 1.578125.003906 2.367187.015625 45.101563.613281 87.40625 18.640625 119.125 50.761719 31.742188 32.15625 49.226563 74.75 49.226563 119.941406 0 32.25-9.035156 63.652344-26.128906 90.808594-11.792969 18.738281-27.511719 32.347656-44.152344 46.757812-6.820313 5.90625-13.871094 12.011719-20.703125 18.546875-9.175781 8.777344-17.785157 18.21875-25.585938 28.054688-15.9375 20.097656-28.8125 42.15625-38.273437 65.558593l-.792969 1.964844c-3.03125 7.5-9.777344 10.171875-15.082031 10.171875-5.304688 0-12.054688-2.671875-15.085938-10.171875l-1.039062-2.570312c-9.941406-24.601563-23.269532-47.367188-39.621094-67.65625-12.875-15.984375-27.730469-29.535156-42.09375-42.640625zm0 0"/><path d="m317.164062 186.101562c0-72.1875-58.730468-130.914062-130.914062-130.914062-72.1875 0-130.914062 58.726562-130.914062 130.914062 0 19.382813 4.136718 38.042969 12.296874 55.464844 1.757813 3.761719 6.234376 5.378906 9.992188 3.617188 3.757812-1.757813 5.378906-6.230469 3.617188-9.992188-7.21875-15.410156-10.878907-31.925781-10.878907-49.089844 0-63.898437 51.984375-115.882812 115.886719-115.882812 63.898438 0 115.882812 51.984375 115.882812 115.882812 0 63.898438-51.984374 115.882813-115.882812 115.882813-33.199219 0-64.859375-14.277344-86.863281-39.167969-2.75-3.109375-7.496094-3.40625-10.605469-.65625s-3.402344 7.5-.65625 10.609375c24.855469 28.121094 60.621094 44.246094 98.125 44.246094 72.183594 0 130.914062-58.726563 130.914062-130.914063zm0 0"/><path d="m204.890625 105.777344h-37.292969c-9.1875 0-16.660156 7.472656-16.660156 16.660156v26.722656c0 .898438-.734375 1.632813-1.632812 1.632813h-26.722657c-9.1875 0-16.660156 7.476562-16.660156 16.664062v37.289063c0 9.1875 7.472656 16.664062 16.660156 16.664062h26.722657c.898437 0 1.632812.730469 1.632812 1.632813v26.722656c0 9.1875 7.472656 16.660156 16.660156 16.660156h37.292969c9.1875 0 16.664063-7.472656 16.664063-16.660156v-26.722656c0-.902344.730468-1.632813 1.632812-1.632813h26.722656c9.1875 0 16.660156-7.476562 16.660156-16.664062v-37.289063c0-9.1875-7.472656-16.664062-16.660156-16.664062h-26.722656c-.902344 0-1.632812-.730469-1.632812-1.632813v-26.722656c0-9.1875-7.476563-16.660156-16.664063-16.660156zm18.296875 60.046875h26.722656c.898438 0 1.632813.730469 1.632813 1.632812v37.289063c0 .902344-.734375 1.632812-1.632813 1.632812h-26.722656c-9.1875 0-16.664062 7.476563-16.664062 16.664063v26.722656c0 .898437-.730469 1.632813-1.632813 1.632813h-37.292969c-.898437 0-1.632812-.730469-1.632812-1.632813v-26.722656c0-9.1875-7.472656-16.664063-16.660156-16.664063h-26.722657c-.902343 0-1.632812-.730468-1.632812-1.632812v-37.289063c0-.902343.730469-1.632812 1.632812-1.632812h26.722657c9.1875 0 16.660156-7.476563 16.660156-16.664063v-26.722656c0-.898438.734375-1.632812 1.632812-1.632812h37.292969c.898437 0 1.632813.730468 1.632813 1.632812v26.722656c0 9.1875 7.476562 16.664063 16.664062 16.664063zm0 0"/></svg>