<?xml version="1.0" encoding="UTF-8"?>
<svg width="24" height="24" version="1.1" viewBox="0 0 24 24" xmlns="http://www.w3.org/2000/svg" xmlns:cc="http://creativecommons.org/ns#" xmlns:dc="http://purl.org/dc/elements/1.1/" xmlns:rdf="http://www.w3.org/1999/02/22-rdf-syntax-ns#">
 <metadata>
  <rdf:RDF>
   <cc:Work rdf:about="">
    <dc:format>image/svg+xml</dc:format>
    <dc:type rdf:resource="http://purl.org/dc/dcmitype/StillImage"/>
    <dc:title/>
   </cc:Work>
  </rdf:RDF>
 </metadata>
 <path d="m10 3-2 2v2h-3c-1.15 0-1.88 1-2 2l-1 10c-0.12 1 0.54 2 2 2h16c1.46 0 2.12-1 2-2l-1-10c-0.12-1-0.94-2-2-2h-3v-2l-2-2h-4m0 2h4v2h-4v-2m1 5h2v3h3v2h-3v3h-2v-3h-3v-2h3v-3z" fill="#6c757d"/>
</svg>
