<svg height="512pt" viewBox="-88 0 512 512" width="512pt" xmlns="http://www.w3.org/2000/svg"><path d="m8 464.023438c-4.425781 0-8-3.574219-8-8 0-39.710938 32.304688-72.015626 72.015625-72.015626 4.425781 0 8 3.578126 8 8 0 4.425782-3.574219 8-8 8-30.886719 0-56.015625 25.128907-56.015625 56.015626 0 4.425781-3.574219 8-8 8zm0 0"/><path d="m328 464.015625c-4.425781 0-8-3.574219-8-8 0-30.871094-25.128906-56-56-56-4.425781 0-8-3.574219-8-8 0-4.421875 3.574219-8 8-8 39.703125 0 72 32.296875 72 72 0 4.425781-3.574219 8-8 8zm0 0"/><path d="m72.015625 400.007812c-4.414063 0-8-3.574218-8-8 0-4.414062 3.578125-8 8-8l23.992187-.007812c4.417969 0 8 3.574219 8 8 0 4.414062-3.574218 8-8 8zm0 0"/><path d="m8.007812 504c-4.414062 0-7.9999995-3.574219-7.9999995-8l-.0078125-39.976562c0-4.414063 3.574219-8 8-8 4.414062 0 8 3.578124 8 8l.007812 39.976562c0 4.414062-3.574218 8-8 8zm0 0"/><path d="m16.007812 512c-8.824218 0-15.9999995-7.175781-15.9999995-16 0-4.425781 3.5781255-8 7.9999995-8 4.425782 0 8 3.574219 8 8v.015625c4.425782 0 8 3.570313 8 7.992187 0 4.417969-3.574218 7.992188-8 7.992188zm0 0"/><path d="m320 512c-4.425781 0-8-3.574219-8-8s3.574219-8 8-8h.015625c0-4.425781 3.570313-8 7.992187-8 4.417969 0 7.992188 3.574219 7.992188 8 0 8.824219-7.175781 16-16 16zm0 0"/><path d="m328 504c-4.425781 0-8-3.574219-8-8v-39.984375c0-4.421875 3.574219-8 8-8s8 3.578125 8 8v39.984375c0 4.425781-3.574219 8-8 8zm0 0"/><path d="m320 512h-303.992188c-4.421874 0-8-3.574219-8-8s3.578126-8 8-8h303.992188c4.425781 0 8 3.574219 8 8s-3.574219 8-8 8zm0 0"/><path d="m111.992188 384c-1.199219 0-2.425782-.273438-3.566407-.839844-3.953125-1.976562-5.554687-6.785156-3.578125-10.734375l8-16c1.984375-3.953125 6.785156-5.539062 10.738282-3.578125 3.949218 1.976563 5.550781 6.785156 3.574218 10.738282l-8 16c-1.40625 2.796874-4.230468 4.414062-7.167968 4.414062zm0 0"/><path d="m224.007812 384c-2.929687 0-5.75-1.617188-7.160156-4.414062l-8.03125-16c-1.984375-3.945313-.390625-8.753907 3.558594-10.738282 3.953125-1.984375 8.753906-.382812 10.738281 3.558594l8.03125 16c1.984375 3.945312.390625 8.753906-3.558593 10.738281-1.144532.582031-2.378907.855469-3.578126.855469zm0 0"/><path d="m126.503906 416.015625c-2.769531 0-5.449218-1.429687-6.929687-3.992187-2.214844-3.832032-.902344-8.71875 2.914062-10.925782l41.503907-24.019531c3.832031-2.230469 8.710937-.910156 10.929687 2.914063 2.214844 3.824218.902344 8.71875-2.914063 10.929687l-41.503906 24.015625c-1.265625.734375-2.640625 1.078125-4 1.078125zm0 0"/><path d="m209.984375 416.015625c-1.34375 0-2.710937-.335937-3.960937-1.054687l-41.992188-24.015626c-3.832031-2.191406-5.167969-7.082031-2.976562-10.914062 2.183593-3.832031 7.089843-5.175781 10.914062-2.976562l41.992188 24.015624c3.832031 2.195313 5.167968 7.082032 2.976562 10.914063-1.472656 2.582031-4.175781 4.03125-6.953125 4.03125zm0 0"/><path d="m80 416.015625c-2.046875 0-4.097656-.785156-5.65625-2.34375-3.128906-3.128906-3.128906-8.183594 0-11.3125l32-32.015625c3.128906-3.128906 8.183594-3.128906 11.3125 0s3.128906 8.183594 0 11.3125l-32 32.015625c-1.558594 1.558594-3.609375 2.34375-5.65625 2.34375zm0 0"/><path d="m112 448c-2.046875 0-4.097656-.785156-5.65625-2.34375l-32-31.984375c-3.128906-3.128906-3.128906-8.183594 0-11.3125s8.183594-3.128906 11.3125 0l32 31.984375c3.128906 3.128906 3.128906 8.183594 0 11.3125-1.558594 1.558594-3.609375 2.34375-5.65625 2.34375zm0 0"/><path d="m96 464c-2.046875 0-4.097656-.785156-5.65625-2.34375-3.128906-3.128906-3.128906-8.183594 0-11.3125l16-16c3.128906-3.128906 8.183594-3.128906 11.3125 0s3.128906 8.183594 0 11.3125l-16 16c-1.558594 1.558594-3.609375 2.34375-5.65625 2.34375zm0 0"/><path d="m144 512c-2.046875 0-4.097656-.785156-5.65625-2.34375l-48-48c-3.128906-3.128906-3.128906-8.183594 0-11.3125s8.183594-3.128906 11.3125 0l48 48c3.128906 3.128906 3.128906 8.183594 0 11.3125-1.558594 1.558594-3.609375 2.34375-5.65625 2.34375zm0 0"/><path d="m168.007812 512c-3.085937 0-6.023437-1.792969-7.335937-4.800781l-56-128c-1.777344-4.046875.070313-8.757813 4.128906-10.527344 4.039063-1.777344 8.765625.082031 10.527344 4.128906l56 128c1.777344 4.046875-.070313 8.757813-4.128906 10.527344-1.03125.464844-2.121094.671875-3.191407.671875zm0 0"/><path d="m256 416.015625c-2.046875 0-4.097656-.785156-5.65625-2.34375l-32-32.015625c-3.128906-3.128906-3.128906-8.183594 0-11.3125s8.183594-3.128906 11.3125 0l32 32.015625c3.128906 3.128906 3.128906 8.183594 0 11.3125-1.558594 1.558594-3.609375 2.34375-5.65625 2.34375zm0 0"/><path d="m224 448c-2.046875 0-4.097656-.785156-5.65625-2.34375-3.128906-3.128906-3.128906-8.183594 0-11.3125l32-31.984375c3.128906-3.128906 8.183594-3.128906 11.3125 0s3.128906 8.183594 0 11.3125l-32 31.984375c-1.558594 1.558594-3.609375 2.34375-5.65625 2.34375zm0 0"/><path d="m240 464c-2.046875 0-4.097656-.785156-5.65625-2.34375l-16-16c-3.128906-3.128906-3.128906-8.183594 0-11.3125s8.183594-3.128906 11.3125 0l16 16c3.128906 3.128906 3.128906 8.183594 0 11.3125-1.558594 1.558594-3.609375 2.34375-5.65625 2.34375zm0 0"/><path d="m192 512c-2.046875 0-4.097656-.785156-5.65625-2.34375-3.128906-3.128906-3.128906-8.183594 0-11.3125l48-48c3.128906-3.128906 8.183594-3.128906 11.3125 0s3.128906 8.183594 0 11.3125l-48 48c-1.558594 1.558594-3.609375 2.34375-5.65625 2.34375zm0 0"/><path d="m167.992188 512c-1.070313 0-2.160157-.207031-3.191407-.671875-4.058593-1.777344-5.898437-6.488281-4.128906-10.527344l56-128c1.761719-4.058593 6.488281-5.929687 10.527344-4.128906 4.058593 1.777344 5.898437 6.488281 4.128906 10.527344l-56 128c-1.3125 3.007812-4.25 4.800781-7.335937 4.800781zm0 0"/><path d="m264 400.015625h-24c-4.425781 0-8-3.574219-8-8 0-4.421875 3.574219-8 8-8h24c4.425781 0 8 3.578125 8 8 0 4.425781-3.574219 8-8 8zm0 0"/><path d="m147.007812 464c-.824218 0-1.648437-.128906-2.472656-.390625-4.199218-1.371094-6.503906-5.882813-5.144531-10.082031l12.992187-39.984375c1.371094-4.199219 5.882813-6.503907 10.082032-5.144531 4.199218 1.371093 6.503906 5.882812 5.144531 10.082031l-12.992187 39.984375c-1.105469 3.382812-4.234376 5.535156-7.609376 5.535156zm0 0"/><path d="m188.992188 464.015625c-3.375 0-6.503907-2.152344-7.609376-5.527344l-12.992187-40.015625c-1.367187-4.199218.9375-8.710937 5.144531-10.082031 4.191406-1.367187 8.703125.929687 10.082032 5.144531l12.992187 40.015625c1.367187 4.203125-.9375 8.714844-5.144531 10.082031-.824219.253907-1.648438.382813-2.472656.382813zm0 0"/><path d="m176 424.015625h-16c-4.425781 0-8-3.574219-8-8 0-4.421875 3.574219-8 8-8h16c4.425781 0 8 3.578125 8 8 0 4.425781-3.574219 8-8 8zm0 0"/><path d="m176 424.015625c-1.871094 0-3.753906-.648437-5.265625-1.976563-3.328125-2.910156-3.664063-7.96875-.757813-11.285156l16-18.289062c2.910157-3.34375 7.96875-3.664063 11.289063-.761719 3.328125 2.914063 3.664063 7.96875.757813 11.289063l-16 18.289062c-1.582032 1.816406-3.800782 2.734375-6.023438 2.734375zm0 0"/><path d="m160 424.015625c-2.207031 0-4.414062-.910156-6-2.703125l-16-18.128906c-2.921875-3.3125-2.609375-8.367188.703125-11.296875 3.320313-2.910157 8.359375-2.605469 11.296875.707031l16 18.125c2.921875 3.3125 2.609375 8.371094-.703125 11.296875-1.519531 1.34375-3.417969 2-5.296875 2zm0 0"/><path d="m215.96875 368h-95.96875c-4.425781 0-8-3.574219-8-8s3.574219-8 8-8h95.96875c4.421875 0 8 3.574219 8 8s-3.578125 8-8 8zm0 0"/><path d="m144 368c-4.425781 0-8-3.574219-8-8v-33.800781c0-4.421875 3.574219-8 8-8s8 3.578125 8 8v33.800781c0 4.425781-3.574219 8-8 8zm0 0"/><path d="m191.96875 368c-4.425781 0-8-3.574219-8-8v-33.792969c0-4.421875 3.574219-8 8-8 4.421875 0 8 3.578125 8 8v33.792969c0 4.425781-3.578125 8-8 8zm0 0"/><path d="m168 336c-92.632812 0-168-75.367188-168-168s75.367188-168 168-168 168 75.367188 168 168-75.367188 168-168 168zm0-320c-83.816406 0-152 68.183594-152 152s68.183594 152 152 152 152-68.183594 152-152-68.183594-152-152-152zm0 0"/><path d="m168 312c-79.398438 0-144-64.601562-144-144s64.601562-144 144-144 144 64.601562 144 144-64.601562 144-144 144zm0-272c-70.574219 0-128 57.425781-128 128s57.425781 128 128 128 128-57.425781 128-128-57.425781-128-128-128zm0 0"/><path d="m272 176c-4.425781 0-8-3.574219-8-8 0-52.9375-43.0625-96-96-96-4.425781 0-8-3.574219-8-8s3.574219-8 8-8c61.761719 0 112 50.238281 112 112 0 4.425781-3.574219 8-8 8zm0 0"/></svg>