<svg id="_x33_0" enable-background="new 0 0 64 64" height="512" viewBox="0 0 64 64" width="512" xmlns="http://www.w3.org/2000/svg"><g><path d="m32 53c-1.654 0-3 1.346-3 3s1.346 3 3 3 3-1.346 3-3-1.346-3-3-3zm0 4c-.552 0-1-.449-1-1s.448-1 1-1 1 .449 1 1-.448 1-1 1z"/><path d="m5 19h14v2h-14z"/><path d="m5 23h14v2h-14z"/><path d="m5 15h4v2h-4z"/><path d="m11 15h8v2h-8z"/><path d="m57 25h2v2h-2z"/><path d="m53 25h2v2h-2z"/><path d="m49 25h2v2h-2z"/><path d="m61 21h-10v-14c0-3.309-2.691-6-6-6h-27c-2.757 0-5 2.243-5 5v5h-10c-1.103 0-2 .897-2 2v14c0 1.103.897 2 2 2h8.382l1.383 2.765c.064.127.152.232.235.342v24.893c0 3.309 2.691 6 6 6h26c3.309 0 6-2.691 6-6v-22.042c.135.024.272.042.414.042.637 0 1.259-.258 1.707-.707l3.293-3.293h4.586c1.103 0 2-.897 2-2v-6c0-1.103-.897-2-2-2zm-46-15c0-1.654 1.346-3 3-3h27c2.206 0 4 1.794 4 4v14h-2v-14c0-1.103-.897-2-2-2h-26c-1.103 0-2 .897-2 2v4h-2zm4 23h2c.959 0 1.761-.679 1.954-1.581.601.361 1.296.581 2.046.581h.685c.435.912 1.057 1.718 1.823 2.361l-.096.481c-.159.794-.775 1.411-1.569 1.569l-2.412.482c-1.769.354-3.302 1.287-4.431 2.573zm20-4v-3c1.103 0 2 .897 2 2s-.897 2-2 2h-.08c.047-.328.08-.66.08-1zm1.653-5.124-.142.425c-.466-.191-.976-.301-1.511-.301h-.184c-.414-1.161-1.514-2-2.816-2h-4c-.552 0-1-.449-1-1s.448-1 1-1h1v-2h-1c-1.374 0-2.536.929-2.89 2.192l-.322.081c-1.855.463-3.23 1.927-3.645 3.728h-.143c-.503 0-.979.104-1.423.274-.264-.921-.577-2.226-.577-3.275 0-1.307.886-2.44 2.152-2.757l1.465-.366.215-.322c1.066-1.6 2.851-2.555 4.773-2.555h2.651c3.719 0 6.744 3.025 6.744 6.744 0 .727-.116 1.444-.347 2.132zm-8.932 21.124h.558l1.334 4h-3.226zm.661-2h-.763l-.738-1.475 1.119-.448 1.119.448zm-2.626-3.179-2.004.802-.437-2.265zm4.488 0 2.441-1.463-.437 2.265zm1.092-2.986-3.336 2-3.336-2c.299-.404.515-.87.646-1.374.829.346 1.737.539 2.69.539s1.861-.193 2.69-.539c.131.503.347.97.646 1.374zm-3.336-2.835c-2.757 0-5-2.243-5-5v-3.877c0-1.374.928-2.567 2.258-2.906.468 1.05 1.52 1.783 2.742 1.783h4c.552 0 1 .449 1 1v4c0 2.757-2.243 5-5 5zm-7-8v3c0 .34.033.672.08 1h-.08c-1.103 0-2-.897-2-2s.897-2 2-2zm-1.177 12.855 1.494-.299.931 4.822 2.769-1.108.903 1.806-1.64 4.924h-3.28v-4h-2v4h-4v-4.261c0-2.85 2.028-5.325 4.823-5.884zm-4.823 12.145h26v2h-26zm26-2h-4v-4h-2v4h-3.28l-1.64-4.923.903-1.806 2.769 1.108.931-4.822 1.494.299c2.795.558 4.823 3.033 4.823 5.883zm-4.431-12.106-2.412-.482c-.794-.159-1.41-.775-1.569-1.568l-.096-.482c.766-.643 1.388-1.449 1.823-2.361h.685c2.206 0 4-1.794 4-4 0-.901-.31-1.724-.815-2.393l.365-1.098c.299-.893.45-1.823.45-2.766 0-4.822-3.922-8.744-8.743-8.744h-2.651c-2.46 0-4.752 1.159-6.209 3.12l-.729.182c-.619.155-1.176.434-1.668.792v-.094c0-1.103-.897-2-2-2h-2v-4h26v28.467c-1.128-1.286-2.662-2.219-4.431-2.573zm-27.951-5.894h-9.618v-14h18v14h-6v3.764c0 .22-.35.301-.447.105zm36.382 30c0 2.206-1.794 4-4 4h-26c-2.206 0-4-1.794-4-4v-24.024c1.121-.12 2-1.06 2-2.212v18.236c0 1.103.897 2 2 2h26c1.103 0 2-.897 2-2v-18h2zm12-28h-5.414l-3.88 3.879c-.234.237-.706.045-.706-.293v-3.586h-4v-6h14z"/></g></svg>