<?xml version="1.0" encoding="UTF-8"?>
<svg width="24" height="24" version="1.1" viewBox="0 0 24 24" xmlns="http://www.w3.org/2000/svg" xmlns:cc="http://creativecommons.org/ns#" xmlns:dc="http://purl.org/dc/elements/1.1/" xmlns:rdf="http://www.w3.org/1999/02/22-rdf-syntax-ns#">
 <metadata>
  <rdf:RDF>
   <cc:Work rdf:about="">
    <dc:format>image/svg+xml</dc:format>
    <dc:type rdf:resource="http://purl.org/dc/dcmitype/StillImage"/>
    <dc:title/>
   </cc:Work>
  </rdf:RDF>
 </metadata>
 <defs>
  <linearGradient id="linearGradient848" x1="7.3814" x2="22.944" y1="5.0232" y2="22.94" gradientUnits="userSpaceOnUse">
   <stop stop-color="#1ccbba" offset="0"/>
   <stop stop-color="#5073f1" offset="1"/>
  </linearGradient>
 </defs>
 <path d="m6 1v2h-1c-1.11 0-2 0.89-2 2v14c0 1.1 0.89 2 2 2h6.0996c1.26 1.24 2.9904 2 4.9004 2 3.866 0 7-3.134 7-7 0-1.91-0.76-3.6404-2-4.9004v-6.0996c0-1.1046-0.89543-2-2-2h-1v-2h-2v2h-8v-2h-2zm-1 7h14v1.6699c-0.91-0.43-1.93-0.66992-3-0.66992-1.315 0-2.5407 0.36935-3.5918 1h-1.4082v1.1055c-1.2359 1.2623-2 2.9884-2 4.8945 0 1.07 0.23992 2.09 0.66992 3h-4.6699v-11zm4 8v-2h-2v2h2zm-2-6v2h2v-2h-2zm9 1.1504c2.68 0 4.8496 2.1696 4.8496 4.8496 0 2.6786-2.171 4.8496-4.8496 4.8496-2.68 0-4.8496-2.1696-4.8496-4.8496 0-2.6786 2.171-4.8496 4.8496-4.8496zm-1 1.8496v3.6895l3.1895 1.8398 0.75-1.2988-2.4395-1.4102v-2.8203h-1.5z" fill="url(#linearGradient848)"/>
</svg>
