<?xml version="1.0" encoding="UTF-8"?>
<svg width="24" height="24" version="1.1" viewBox="0 0 24 24" xmlns="http://www.w3.org/2000/svg" xmlns:cc="http://creativecommons.org/ns#" xmlns:dc="http://purl.org/dc/elements/1.1/" xmlns:rdf="http://www.w3.org/1999/02/22-rdf-syntax-ns#">
 <metadata>
  <rdf:RDF>
   <cc:Work rdf:about="">
    <dc:format>image/svg+xml</dc:format>
    <dc:type rdf:resource="http://purl.org/dc/dcmitype/StillImage"/>
    <dc:title/>
   </cc:Work>
  </rdf:RDF>
 </metadata>
 <defs>
  <linearGradient id="linearGradient855" x1="5.6412" x2="22" y1="5.198" y2="22" gradientUnits="userSpaceOnUse">
   <stop stop-color="#1ccbba" offset="0"/>
   <stop stop-color="#5073f1" offset="1"/>
  </linearGradient>
 </defs>
 <path d="m2 22v-15c0-0.55228 0.44772-1 1-1h4v-4h10v4h4c0.55228 0 1 0.44772 1 1v15h-8v-5h-4v5h-8m7-18v4h2v2h2v-2h2v-2h-2v-2h-2v2h-2m-5 14h4v-3h-4v3m0-5h4v-3h-4v3m12 5h4v-3h-4v3m0-5h4v-3h-4v3m-6 0h4v-3h-4z" fill="url(#linearGradient855)"/>
</svg>
