<?xml version="1.0" encoding="UTF-8"?>
<svg width="24" height="24" version="1.1" viewBox="0 0 24 24" xmlns="http://www.w3.org/2000/svg" xmlns:cc="http://creativecommons.org/ns#" xmlns:dc="http://purl.org/dc/elements/1.1/" xmlns:rdf="http://www.w3.org/1999/02/22-rdf-syntax-ns#">
 <metadata>
  <rdf:RDF>
   <cc:Work rdf:about="">
    <dc:format>image/svg+xml</dc:format>
    <dc:type rdf:resource="http://purl.org/dc/dcmitype/StillImage"/>
    <dc:title/>
   </cc:Work>
  </rdf:RDF>
 </metadata>
 <defs>
  <linearGradient id="linearGradient862" x1="5.429" x2="22.988" y1="5.7638" y2="21.992" gradientUnits="userSpaceOnUse">
   <stop stop-color="#1ccbba" offset="0"/>
   <stop stop-color="#5073f1" offset="1"/>
  </linearGradient>
 </defs>
 <path d="m9.06 1.93c-1.89-0.01-3.73 1.81-2.89 4.07h-3.17c-1.1046 0-2 0.89543-2 2v2c0 0.55228 0.44772 1 1 1h20c0.55228 0 1-0.44772 1-1v-2c0-1.1046-0.89543-2-2-2h-3.17c1.17-3.27-3.23-5.58-5.26-2.76l-0.57 0.76-0.57-0.78c-0.63-0.89-1.5-1.28-2.37-1.29m-0.06 2.07c0.89 0 1.34 1.08 0.71 1.71s-1.71 0.18-1.71-0.71c0-0.55228 0.44772-1 1-1m6 0c0.89 0 1.34 1.08 0.71 1.71s-1.71 0.18-1.71-0.71c0-0.55228 0.44772-1 1-1m-13 8v8c0 1.1046 0.89543 2 2 2h16c1.1046 0 2-0.89543 2-2v-8h-9v8h-2v-8z" fill="url(#linearGradient862)" style="mix-blend-mode:normal"/>
</svg>
