<?xml version="1.0" encoding="UTF-8"?>
<!DOCTYPE svg PUBLIC "-//W3C//DTD SVG 1.1//EN" "http://www.w3.org/Graphics/SVG/1.1/DTD/svg11.dtd">
<!-- Creator: CorelDRAW 2019 (64-Bit) -->
<svg xmlns="http://www.w3.org/2000/svg" xml:space="preserve" width="823px" height="240px" version="1.1" style="shape-rendering:geometricPrecision; text-rendering:geometricPrecision; image-rendering:optimizeQuality; fill-rule:evenodd; clip-rule:evenodd"
viewBox="0 0 823 239.96"
 xmlns:xlink="http://www.w3.org/1999/xlink"
 xmlns:xodm="http://www.corel.com/coreldraw/odm/2003">
 <defs>
  <style type="text/css">
   <![CDATA[
    .fil0 {fill:#108DE8}
    .fil2 {fill:#79BBE7}
    .fil1 {fill:white}
   ]]>
  </style>
 </defs>
 <g id="Layer_x0020_1">
  <metadata id="CorelCorpID_0Corel-Layer"/>
  <path class="fil0" d="M108.52 0.44c-39.69,3.75 -71.84,24.76 -91.38,57.19 -12.69,21.07 -18.65,46.04 -16.81,71.66 4.5,62.68 58.36,115.75 127.31,110.28 61.86,-4.9 112.9,-60.55 107.67,-128.99 -1.91,-25.06 -10.62,-45.71 -24.58,-64.36 -6.33,-8.45 -7.57,-8.58 -14.17,-15.5 -8.19,-8.57 -25.5,-18.41 -36.55,-22.77 -14.81,-5.84 -33.67,-9.2 -51.49,-7.51z"/>
  <path class="fil1" d="M49.6 85.01c-1.51,4.35 -0.61,52.65 -0.61,61.61 0,9.69 -1.92,12.71 13.25,17.9 40.14,13.73 79.89,-32.82 119.81,-9.79 1.85,1.07 4.11,3.26 4.64,-0.28l0.01 -62.13c0,-6.68 0.6,-8.78 -3.83,-11.87 -35.72,-24.88 -74.4,17.68 -110.65,12.91 -13.41,-1.77 -18.96,-8.61 -22.62,-8.35z"/>
  <path class="fil0" d="M325.4 180.8c15.64,1.11 33.87,-11.02 40.3,-17.97 22.31,-24.15 22.85,-59.09 0.39,-84.37 -8.37,-9.41 -27.95,-19.82 -40.44,-18.36l-45.1 0.03 -0.01 120.51 44.86 0.16zm-19.52 -26.12c3.32,0.58 16.96,0.37 20.71,0.02 30.81,-2.82 41.7,-44.94 15.79,-62.59 -4.3,-2.93 -9.08,-5.27 -15.36,-5.96 -3.44,-0.39 -18.12,-0.63 -21.16,-0.08l0.02 68.61z"/>
  <path class="fil0" d="M720.44 181.02l25.65 -0.01 0.03 -25.97 50.9 0 0.15 25.97 25.64 0.01c0.02,-14.44 0.01,-28.76 0.01,-43.07 0,-12.9 1.09,-29.04 -2.1,-40.74 -5.38,-19.8 -24.21,-37.36 -48.98,-37.46 -25.05,-0.1 -43.23,17.41 -49.03,36.93 -3.44,11.54 -2.29,28.1 -2.29,40.81 0,14.49 -0.15,29.05 0.02,43.53zm25.67 -52.12l51.04 0.02c0.12,-11.14 1.32,-21.96 -3.68,-30.5 -3.58,-6.11 -11.12,-12.5 -21.72,-12.54 -10.81,-0.05 -18.02,6.09 -21.88,12.42 -5.06,8.29 -3.91,19.72 -3.76,30.6z"/>
  <path class="fil0" d="M426.99 180.99l25.57 0.02c0.02,-5.42 -0.69,-22.04 0.25,-25.98l50.71 0.01 0.18 25.96 25.6 0.02c-0.13,-14.39 -0.01,-28.76 -0.01,-43.07 0,-12.28 1.14,-29.87 -2.08,-40.76 -14.65,-49.57 -82.86,-49.92 -98,-0.49 -3.43,11.19 -2.25,28.32 -2.25,40.79 0,14.39 -0.33,29.16 0.03,43.5zm25.59 -52.09l51.1 0.03c0.1,-10.98 1.3,-22.01 -3.71,-30.53 -9.17,-15.59 -32.5,-17.84 -43.59,-0.08 -5.08,8.12 -3.97,19.89 -3.8,30.58z"/>
  <path class="fil0" d="M574.3 107.17l-0.34 18c0,15.1 -0.76,43.25 0.05,55.5l25.07 0.01c0.58,-8.58 -0.9,-69.84 0.68,-71.79 0.01,-11.9 12.42,-22.97 24.97,-23.01 7.71,-0.03 13.33,3.11 17.42,6.83 3.2,2.91 8.09,9.53 7.99,16.25 1.18,0.66 0.25,64.55 0.62,71.7l25.1 0.02 -0.2 -73.14c0.62,-5.73 -2.83,-14.59 -5.04,-19.09 -18.58,-37.77 -71.91,-38.27 -91.02,-0.65 -2.24,4.41 -5.83,13.51 -5.3,19.37z"/>
  <path class="fil2" d="M325.4 180.8l-44.86 -0.16 0.01 -120.51 45.1 -0.03c-0.82,-1.15 -19.63,-0.46 -22.27,-0.46 -6.56,0 -16.92,-0.62 -23.02,0.1 -0.58,1.92 -0.81,118.19 -0.04,121.33 4.15,0.53 33.09,0.12 42.24,0.14l2.52 -0.26c0.08,-0.03 0.21,-0.1 0.32,-0.15z"/>
  <path class="fil2" d="M650.14 108.96c0.27,9.85 -0.53,68.6 0.39,72.12l25.56 0.11c0.66,-2.82 0.25,-48.63 0.25,-55.56 0,-3.32 0.89,-16.34 -0.68,-18.09l0.2 73.14 -25.1 -0.02c-0.37,-7.15 0.56,-71.04 -0.62,-71.7z"/>
  <path class="fil2" d="M599.76 108.89c-1.58,1.95 -0.1,63.21 -0.68,71.79l-25.07 -0.01c-0.81,-12.25 -0.05,-40.4 -0.05,-55.5l0.34 -18c-1.42,0.62 -0.78,32.7 -0.78,36.71 0,5.83 -0.7,33.87 0.3,37.21l25.54 0.1 0.4 -72.3z"/>
 </g>
</svg>
