	<svg _ngcontent-halodoc-c199="" xmlns="http://www.w3.org/2000/svg" width="84" height="19" viewBox="0 0 84 19">
									<g _ngcontent-halodoc-c199="" fill="none" fill-rule="nonzero">
										<path
											_ngcontent-halodoc-c199=""
											fill="#000"
											d="M43.755 6.012a2.893 2.893 0 0 0-2.032-.841 2.863 2.863 0 0 0-2.869 2.858 2.863 2.863 0 0 0 2.869 2.857 2.742 2.742 0 0 0 2.071-.794 2.716 2.716 0 0 0 .798-2.063 2.835 2.835 0 0 0-.837-2.017zM41.73 2.714c3.307 0 5.674 2.315 5.674 5.315 0 3-2.353 5.308-5.672 5.308-3.323 0-5.682-2.315-5.682-5.308 0-3 2.375-5.315 5.68-5.315zm-13.038 8.094a2.69 2.69 0 0 1-2.14-.746 2.665 2.665 0 0 1-.802-2.113c0-1.641 1.206-2.769 3.055-2.769 1.435 0 2.748 1.034 2.748 2.2l.007 1.19c0 1.244-1.255 2.238-2.868 2.238zM31.674 3.9a4.581 4.581 0 0 0-3.414-1.185c-2.932.027-5.285 2.416-5.257 5.336.026 2.918 2.426 5.261 5.357 5.235a4.314 4.314 0 0 0 3.263-1.221v1.027c0 1.373-1.182 2.386-2.746 2.386a4.314 4.314 0 0 1-3.3-1.207l-1.828 1.758a7.023 7.023 0 0 0 5.184 2.036c3.208 0 5.408-2.143 5.408-5V2.714h-2.667V3.9zm20.111-.908v.893h.036a4.479 4.479 0 0 1 3.242-1.17c2.943 0 5.33 2.376 5.33 5.307 0 2.93-2.387 5.307-5.33 5.307a4.847 4.847 0 0 1-3.149-1.064v5.043h-2.813L49.09 2.992h2.696zm.115 4.343v1.308c0 1.215 1.212 2.222 2.748 2.222a2.86 2.86 0 0 0 2.517-2.836c0-1.443-1.08-2.66-2.517-2.837h-.016c-1.484 0-2.732 1.043-2.732 2.143zM67.966 6.03c0-.664-.716-1.064-1.778-1.064a2.388 2.388 0 0 0-2.511 1.8l-2.653-.551c.38-2.043 2.488-3.5 5.085-3.5 2.94 0 4.763 1.492 4.763 3.935v6.431h-2.525v-1.138a4.176 4.176 0 0 1-3.4 1.387c-2.217 0-3.758-1.215-3.758-3 0-1.786 1.212-2.843 4.388-3.278 1.845-.243 2.389-.51 2.389-1.022zm.172 2.085c-.25.357-.781.564-2.15.815-1.65.3-2.238.622-2.238 1.214s.486.87 1.555.87c1.607 0 2.87-.713 2.87-1.707l.021-1.192h-.058zm7.819 4.378l-4.647-9.5h3.09l3.063 6.557 3.02-6.557h3.112l-6.964 14.286H73.54l2.418-4.786z"></path>
										<path
											_ngcontent-halodoc-c199=""
											fill="#00AED6"
											d="M.393 9.035C.393 4.105 4.41.108 9.362.108c4.95 0 8.966 3.997 8.966 8.927 0 4.931-4.015 8.93-8.966 8.93-4.953 0-8.969-3.999-8.969-8.93z"></path>
										<path
											_ngcontent-halodoc-c199=""
											fill="#FFF"
											d="M12.437 6.808H6.598c-.099 0-.194-.04-.264-.11a.367.367 0 0 1-.109-.263.402.402 0 0 1 .373-.37h5.904a1.552 1.552 0 0 0-1.305-1.43 14.273 14.273 0 0 0-5.021 0c-.938.15-1.666.89-1.794 1.822a18.624 18.624 0 0 0 0 5.357 2.19 2.19 0 0 0 1.909 1.821c2.071.257 4.168.257 6.24 0a2.148 2.148 0 0 0 1.864-1.713 14.1 14.1 0 0 0 .194-3.108 2.105 2.105 0 0 0-2.152-2.006z"></path>
										<path
											_ngcontent-halodoc-c199=""
											fill="#00AED6"
											d="M12.947 10.82a.367.367 0 0 1-.108.263.375.375 0 0 1-.638-.261v-.479a.713.713 0 0 1-.222-.45.585.585 0 0 1 .172-.42.597.597 0 0 1 .423-.173.589.589 0 0 1 .429.169.577.577 0 0 1 .172.423.898.898 0 0 1-.228.451v.477z"></path>
									</g>
								</svg>